<?xml version="1.0" encoding="utf-8"?>
<!-- Generator: Adobe Adobe Illustrator 24.2.0, SVG Export Plug-In . SVG Version: 6.00 Build 0)  -->
<svg version="1.1" xmlns="http://www.w3.org/2000/svg" xmlns:xlink="http://www.w3.org/1999/xlink" x="0px" y="0px" width="612px"
	 height="792px" viewBox="0 0 612 792" style="enable-background:new 0 0 612 792;" xml:space="preserve">
<style type="text/css">
	.st0{fill:#6B511E;}
</style>
<g id="Layer_1">
</g>
<g id="Layer_2">
</g>
<g id="Layer_3">
	<g>
		<path class="st0" d="M568.47,432.94c-0.81,0.77-1.63,1.51-2.44,1.52c-4.45,0.03-5.36,2.45-5.29,6.44
			c0.2,11.24,0.01,22.49,0.1,33.74c0.03,3.12-0.62,5.25-4.31,5.01c-2.21-0.14-2.94,1.22-3.24,3.17c-0.48,3.03-0.65,6.06-0.12,9.08
			c0.4,2.27-0.08,4.47-0.22,6.71c-0.14,2.31-1.13,3.44-3.44,3.3c-3.23-0.2-4.13,1.62-4.03,4.46c0.08,2.38,0.03,4.76-0.01,7.14
			c-0.03,2.22-1.06,3.45-3.41,3.39c-1.98-0.05-3.98-0.13-5.95,0.02c-3.47,0.28-5.7-0.49-5.24-4.69c0.23-2.1-1.19-3.25-3.24-3.04
			c-3.34,0.34-4.63-1.32-4.61-4.36c0.01-2.25-1.18-3.1-3.24-2.99c-2.84,0.15-4.24-1.04-3.95-3.97c0.24-2.45-1.24-3.19-3.33-3.47
			c-2.64-0.36-4.98-0.81-4.04-4.65c0.51-2.08-1.34-2.96-3.28-3.01c-2.38-0.07-4.76-0.12-7.14-0.06c-2.84,0.08-4.69-0.79-4.44-4.03
			c0.21-2.75-1.16-3.85-3.8-3.78c-2.38,0.06-4.76,0.05-7.14,0c-2.7-0.06-4.42,1.04-4.35,3.89c0.09,3.66-2.12,4.24-4.94,3.8
			c-4.22-0.66-8.44-0.45-12.67-0.53c-3.51-0.07-4.98,1.53-4.92,5.08c0.16,10.01,0.09,10.02-9.74,10.03
			c-5.29,0.01-10.59,0.06-15.88-0.1c-2.89-0.08-4.67,0.64-4.34,3.94c0.25,2.45-1.06,3.38-3.34,3.19c-3.06-0.26-4.42,1.34-4.52,4.18
			c-0.09,2.65-1.3,3.89-3.98,3.68c-2.12-0.17-3.19,0.84-3.3,2.98c-0.13,2.47-1.39,3.9-3.96,4.03c-2.58,0.13-3.89,1.57-3.83,4.09
			c0.05,2.33-0.88,3.44-3.27,3.34c-2.56-0.11-3.94,1.07-4.01,3.75c-0.06,2.29-1,3.69-3.67,3.51c-3.21-0.22-3.98,2.08-4.11,4.66
			c-0.1,2.03-0.7,3.39-3.05,3.05c-2.05-0.3-3.99-0.72-3.91-3.47c0.06-1.98,0.13-3.98-0.03-5.95c-0.28-3.41,0.37-5.71,4.58-5.4
			c2.28,0.16,2.72-1.65,2.68-3.55c-0.05-2.83,1.32-4.24,4.16-3.89c2.62,0.32,3.74-0.96,3.77-3.35c0.03-2.74,1.13-4.31,4.03-4.15
			c2.17,0.12,3.17-1.03,3.38-3.02c0.29-2.67,1.22-4.43,4.41-4.32c2.19,0.07,3.36-1.38,3.17-3.65c-0.23-2.74,1.14-3.93,3.72-3.88
			c2.47,0.04,3.61-1.1,3.68-3.57c0.08-2.77,1.62-3.99,4.4-3.83c2.24,0.13,4.5,0.04,6.75,0.12c2.3,0.08,3.96-0.47,3.79-3.25
			c-0.16-2.61,1.13-3.88,3.72-4.08c2.54-0.2,4.3-1.35,4.12-4.25c-0.13-2.03,0.98-2.74,2.82-3.03c3.17-0.5,6.32-0.44,9.49-0.15
			c2.23,0.2,4.49,0.33,6.73,0.3c2.54-0.04,4.1-1.44,3.75-4.02c-0.42-3.09,1.26-3.77,3.68-3.72c2.45,0.04,3.71-0.89,3.71-3.46
			c0.01-2.53-0.87-4.15-3.64-4.05c-2.85,0.11-4.19-1.27-4.19-4.03c0-2.05-0.73-3.28-2.98-3.29c-3.32-0.02-4.27-2.12-4.21-5.01
			c0.14-6.35,0.18-12.7,0.48-19.04c0.22-4.75-0.14-5.48-4.82-5.99c-1.79-0.19-2.68-0.99-2.78-2.69c-0.09-1.45-0.09-2.91-0.07-4.36
			c0.05-3.51,0.6-7.25-5.06-6.47c-1.57,0.22-2.04-1.42-2.07-2.85c-0.04-2.65-0.09-5.29-0.04-7.94c0.06-2.77-1.12-4.49-3.98-4.06
			c-2.85,0.43-3.57-1.04-3.68-3.3c-0.1-2.11-0.05-4.23-0.04-6.35c0.02-3.19,0.44-5.88,4.82-5.29c1.92,0.26,2.82-1.25,2.84-3.07
			c0.07-7.94,0.09-15.87,0.14-23.81c0.01-2-1.06-2.96-2.96-2.87c-2.95,0.13-4.53-0.98-4.31-4.13c0.2-2.93-1.81-3-3.95-3.04
			c-2.25-0.04-3.53,0.72-3.48,3.18c0.05,2.51,0.04,5.03-0.08,7.54c-0.1,2.18-0.78,3.77-3.55,3.69c-2.65-0.08-4.54-0.89-4.52-3.75
			c0.03-4.49,0.35-8.98,0.5-13.47c0.08-2.46,0.19-4.97-3.4-5c-3.51-0.03-4.07,2.13-4,5c0.09,4.23,0.1,8.47,0,12.7
			c-0.06,2.46,0.46,4.14,3.36,4.22c2.76,0.08,3.93,1.61,3.85,4.4c-0.13,4.63-0.07,9.26-0.08,13.89c-0.01,2.61-0.81,4.39-3.9,4.17
			c-3.07-0.22-3.8,1.89-3.93,4.33c-0.14,2.64-0.11,5.29-0.13,7.94c-0.01,1.72-0.68,2.87-2.56,2.74c-1.81-0.13-3.95,0-4.17-2.6
			c-0.14-1.71,0-3.44,0-5.16c0-15.22,0.06-30.43-0.05-45.65c-0.03-3.82,0.64-6.57,5.27-6.47c2.04,0.04,2.62-1.41,2.61-3.23
			c-0.01-7.81-0.03-15.61,0-23.42c0.01-2.16-1.01-3.16-3.14-3.13c-3.07,0.03-4.24-1.6-4.02-4.54c0.11-1.45-0.08-2.92,0.06-4.36
			c0.32-3.39,0-6.06-4.52-5.84c-2.14,0.11-2.85-1.48-2.74-3.51c0.15-2.77-1.04-4.21-4-3.99c-2.62,0.2-3.98-1.06-3.82-3.77
			c0.16-2.69-0.72-4.43-3.81-4.13c-2.69,0.26-3.55-1.24-3.38-3.62c0.19-2.71-0.97-3.95-3.72-3.73c-2.88,0.22-4.2-1.24-4.03-4.04
			c0.16-2.72-1.07-3.89-3.76-3.78c-2.54,0.1-3.65-1.36-3.53-3.72c0.17-3.37-1.91-3.95-4.57-3.97c-36.5-0.16-73-0.31-109.49-0.52
			c-3.23-0.02-5.83,0.05-5.6,4.43c0.12,2.2-1.87,2.72-3.67,2.77c-2.77,0.07-4.18,1.23-4.03,4.12c0.11,2.11-1.04,3.31-3.1,3.25
			c-2.77-0.08-4.17,0.96-4.26,3.87c-0.07,2.27-1.39,3.74-3.76,3.77c-2.79,0.04-4.19,1.22-3.96,4.12c0.18,2.24-1.23,3.2-3.17,3.15
			c-3.06-0.08-4.25,1.4-4.44,4.27c-0.13,1.98-1.31,3.11-3.39,3.13c-2.73,0.02-4.23,1.25-4.08,4.12c0.11,2.21-1.05,3.18-3.16,3.01
			c-3.42-0.29-4.42,1.56-4.27,4.6c0.6,12.82-0.84,25.63-0.2,38.47c0.34,6.85-0.1,13.75-0.33,20.62c-0.09,2.77,0.68,4.36,3.77,4.06
			c3.24-0.32,3.62,1.71,3.57,4.27c-0.14,7.01-0.2,14.02-0.26,21.04c-0.04,4.52,0.65,5.11,4.99,4.74c9.77-0.82,19.54,0.62,29.32,0.19
			c2.4-0.1,3.15,1.44,3.11,3.63c-0.03,2.07-0.47,3.9-2.94,3.8c-3.43-0.14-5.34,0.94-5.02,4.71c0.12,1.42-0.9,2.13-2.18,2.4
			c-0.64,0.14-1.32,0.24-1.97,0.19c-3.98-0.3-2.13,5.27-5.28,5.38c-3.3,0.11-5.31,0.85-5.12,4.69c0.11,2.21-1.62,2.69-3.56,2.71
			c-2.94,0.03-4.26,1.57-4.11,4.56c0.11,2.24-0.12,4.5-0.1,6.74c0.03,2.69-1.22,3.78-3.9,3.76c-2.87-0.03-3.63-1.51-3.47-4.06
			c0.31-4.88-0.44-9.77,0.26-14.66c0.33-2.33,1.33-3.67,3.75-3.69c2.28-0.02,3.69-0.82,3.98-3.38c0.22-1.96,1.96-2.36,3.63-2.31
			c2.78,0.08,3.88-1.57,3.87-3.95c-0.01-2.58-1.66-3.67-4.19-3.67c-4.76,0-9.53-0.15-14.29-0.09c-3.04,0.04-4.4-1.3-4.25-4.31
			c0.11-2.38,0.2-4.76,0.2-7.14c0-1.91-0.66-3.65-2.93-3.32c-3.94,0.57-4.48-1.71-4.46-4.72c0.07-14.29,0.15-28.58,0.19-42.87
			c0.01-4.22-0.86-4.87-4.92-4.35c-1.73,0.22-2.79,0.87-2.69,2.69c0.17,3.16-1.13,4.7-4.41,4.54c-2.32-0.11-3.51,1.06-3.05,3.45
			c0.52,2.72-0.86,3.75-3.27,3.63c-2.98-0.16-4.54,0.94-4.35,4.08c0.15,2.49-1.37,3.3-3.53,3.11c-2.77-0.25-3.7,1.3-4.14,3.67
			c-0.63,3.35,0.48,6.56,0.68,9.84c0.12,1.91,1.99,1.85,3.44,1.84c2.46,0,3.73,1.09,3.56,3.61c-0.17,2.47,0.9,3.7,3.44,3.7
			c2.57,0.01,3.75,1.23,3.74,3.96c-0.02,2.76-1.54,3.4-3.78,3.39c-2.85-0.01-3.57,1.62-3.48,4.12c0.07,1.98-0.03,3.97-0.11,5.95
			c-0.12,3.02-0.64,5.53-4.73,5.1c-2.42-0.25-3.03,1.62-3.02,3.72c0.02,4.1-0.14,8.21,0.06,12.3c0.14,2.97-0.94,4.61-3.95,4.61
			c-3.22-0.01-4.06,1.89-4.04,4.62c0.01,1.19-0.07,2.39,0,3.57c0.21,3.46,0.39,6.69-4.66,6.64c-2.13-0.02-2.52,1.89-2.51,3.8
			c0.03,4.63-0.06,9.26-0.05,13.89c0,2.86-0.4,4.9-4.24,4.32c-2.52-0.38-3.69,1.39-3.67,4.01c0.02,2.55,0.77,4.12,3.62,3.96
			c2.7-0.15,4.39,0.86,4.22,3.85c-0.17,2.96,1.61,3.51,4.05,3.49c4.63-0.05,9.26-0.05,13.89,0c2.56,0.03,4.3,1.03,4.39,3.96
			c0.1,3.07-2,3.39-4.21,3.46c-2.74,0.09-3.68,1.57-3.68,4.09c0,2.8,1.57,3.64,4.07,3.64c6.75-0.02,13.5,0.06,20.25,0.01
			c3.42-0.03,6.09,0.46,5.72,4.91c-0.18,2.24,1.46,2.93,3.44,2.78c2.6-0.19,4.12,0.68,3.81,3.55c-0.32,2.94,1.37,4.31,3.95,4.21
			c2.9-0.11,3.81,1.28,3.79,3.77c-0.03,2.41,0.91,3.72,3.5,3.66c2.58-0.06,3.89,1.2,3.79,3.91c-0.09,2.52,0.89,4.13,3.78,3.69
			c2.41-0.37,3.44,0.79,3.42,3.12c-0.02,2.78-0.06,5.56,0.02,8.34c0.07,2.42-1.24,3.29-3.4,3.39c-2.18,0.11-3.56-0.59-3.56-3.09
			c0-3.13-1.25-5.04-4.81-4.66c-2.26,0.24-3.08-1.2-2.97-3.22c0.17-3.06-0.86-4.85-4.26-4.67c-2.35,0.12-3.52-1.27-3.21-3.48
			c0.33-2.33-0.61-3.15-2.74-3.24c-2.79-0.12-4.4-1.31-4.33-4.41c0.05-2.45-1.52-3.46-3.89-3.42c-2.25,0.04-4.5-0.05-6.75-0.01
			c-2.58,0.05-4.44-0.57-4.32-3.71c0.11-3.04-1.46-4.14-4.47-4.02c-4.49,0.18-9-0.06-13.49,0.07c-2.98,0.08-4.23-0.92-4.29-4.1
			c-0.23-10.85-0.33-10.86-11.1-11.22c-1.45-0.05-2.91,0.02-4.36,0.08c-5.79,0.23-6.08,0.02-7.5-5.54c-0.1-0.38-0.08-0.94-0.33-1.11
			c-3.63-2.45-7.66-0.79-11.5-0.95c-2.18-0.09-2.75,1.65-2.77,3.58c-0.03,2.51-1.56,3.48-3.84,3.58c-1.72,0.07-3.45,0.27-5.15,0.09
			c-3.67-0.38-6.68-0.38-6.34,4.78c0.14,2.13-1.86,2.63-3.74,2.57c-2.61-0.08-3.97,0.86-3.65,3.77c0.29,2.56-1.43,3.59-3.69,3.6
			c-2.65,0.01-3.83,1.13-3.86,3.81c-0.03,2.37-1.3,3.48-3.82,3.45c-2.72-0.03-3.38-1.57-3.42-3.81c-0.05-2.51-0.07-5.03-0.05-7.54
			c0.02-2.16-0.6-3.59-3.15-3.49c-3.25,0.13-4.48-1.65-4.25-4.75c0.11-1.45-0.07-2.92,0.1-4.36c0.45-3.7-0.32-6.24-4.79-6.34
			c-2.65-0.06-2.45-2.33-2.45-4.17c-0.02-10.85-0.01-21.7-0.02-32.55c0-6.86,0-6.86-6.58-8.62c-0.29-16.02-0.29-31.92,0.02-48.25
			c7.35-2.35,7.35-2.35,7.36-9.81c0.01-10.32,0.01-20.64,0.02-30.96c0-2.49,0.07-5.12,3.51-5c3.09,0.11,3.82-1.43,3.86-4.12
			c0.08-4.89,0.37-9.78,0.56-14.66c0.06-1.63,0.05-3.62,2.28-3.4c4.94,0.5,5.3-2.84,5.54-6.24c0.13-1.83-0.12-3.69-0.27-5.53
			c-0.16-1.91,0.68-3.44,2.52-3.3c5.28,0.42,5.37-2.88,5.2-6.6c-0.08-1.72-0.04-3.44,0.02-5.16c0.06-2.14,0.94-3.54,3.35-3.49
			c3.54,0.07,4.56-2.02,4.37-5.15c-0.1-1.58,0.01-3.19-0.22-4.75c-0.5-3.33,0.72-5.16,4.19-5.1c2.36,0.04,3.54-1.1,3.38-3.34
			c-0.21-3.05,1.3-4.02,4.05-3.9c2.46,0.11,3.75-0.93,3.41-3.58c-0.23-1.78,0.34-3.47,2.33-3.43c5.24,0.11,5.75-3.02,5.3-7.06
			c-0.14-1.31-0.07-2.64-0.13-3.97c-0.12-2.51,0.93-4.17,3.52-4.33c2.75-0.17,4.03-1.5,4.15-4.21c0.1-2.31,1.67-3.25,3.73-3.27
			c2.63-0.01,3.92-1.24,4.05-3.79c0.13-2.62,1.46-3.77,4.1-3.58c1.7,0.12,3.06-0.95,3.06-2.49c0.02-4.94,3.2-4.97,6.73-4.75
			c1.45,0.09,2.91-0.05,4.36,0.02c2.71,0.14,4.43-0.84,4.3-3.8c-0.12-2.67,1.29-3.38,3.67-3.42c2.21-0.03,3.93-0.96,3.74-3.58
			c-0.23-3.18,1.46-4.33,4.32-4.2c2.65,0.12,3.48-1.23,3.42-3.65c-0.07-3.12,1.67-4.14,4.6-3.88c2.36,0.21,4.75,0.29,7.12,0.24
			c1.71-0.04,3.37-0.8,3.22-2.76c-0.32-4.09,1.98-4.59,5.18-4.34c1.71,0.13,3.44-0.03,5.16,0.06c2.68,0.14,4.41-0.76,4.4-3.73
			c-0.01-3.08,1.77-4.17,4.56-4.18c2.38-0.01,4.76-0.07,7.14,0c2.02,0.06,3.54-0.72,3.63-2.78c0.15-3.49,2.44-4.04,5.12-4.09
			c4.5-0.09,9-0.08,13.49-0.06c2.37,0.01,3.85-0.89,3.79-3.46c-0.07-3.21,1.79-4.02,4.6-3.97c7.01,0.14,14.02,0.13,21.03,0.28
			c2.97,0.06,4.95-0.64,4.62-4.18c-0.22-2.39,1.09-3.27,3.39-3.24c2.21,0.03,3.62,0.73,3.47,3.19c-0.14,2.43,0.44,4.05,3.38,4.19
			c3.02,0.15,4.36-0.96,4.45-4.02c0.07-2.35,1.51-3.42,3.96-3.37c17.46,0.31,34.91,0.55,52.37,0.81c1.77,0.03,3.41,0.5,3.23,2.57
			c-0.4,4.43,2.09,4.88,5.62,4.83c9.13-0.15,18.26-0.06,27.39-0.04c2.35,0.01,4.8,0.13,4.47,3.48c-0.34,3.51,1.54,4.36,4.54,4.32
			c4.5-0.06,8.99-0.06,13.49,0.01c1.91,0.03,4.11,0.39,4.05,2.8c-0.11,4.39,2.58,4.97,5.91,5.02c2.12,0.03,4.23,0.03,6.35,0.11
			c1.64,0.06,3,0.78,2.82,2.6c-0.44,4.51,2.18,5.02,5.68,4.75c1.71-0.13,3.44,0.04,5.16-0.01c2.69-0.08,4.36,0.91,4.26,3.87
			c-0.09,2.71,1.63,3.3,3.86,3.37c2.64,0.08,5.28,0.16,7.92,0.34c1.98,0.13,3.46,1.11,2.99,3.27c-0.7,3.2,0.95,4.1,3.6,4.16
			c2.09,0.05,3.95,0.6,3.75,3.02c-0.37,4.37,1.93,5.18,5.55,4.84c1.7-0.16,3.44,0,5.16-0.03c2.61-0.05,4.38,0.48,3.98,3.8
			c-0.32,2.68,0.91,4.34,3.99,3.83c2.85-0.47,3.84,1.02,3.72,3.65c-0.11,2.4,0.92,3.89,3.47,3.71c2.75-0.19,3.85,1.2,4.02,3.7
			c0.15,2.21,0.77,3.79,3.51,3.71c2.53-0.07,3.9,1.33,3.82,3.98c-0.09,2.67,1.25,3.85,3.89,3.79c2.45-0.06,3.71,1.17,3.51,3.67
			c-0.23,2.78,1.48,3.95,3.8,4.04c2.93,0.11,4.02,1.56,3.99,4.22c-0.02,2.1,0.82,3.25,3.07,3.1c3.55-0.24,4.36,1.96,3.98,4.83
			c-0.32,2.41,0.23,4.74,0.22,7.1c-0.01,2.16,0.96,3.22,3.12,3.12c3.11-0.14,4.28,1.47,4.12,4.41c-0.08,1.46,0.45,2.91,2.08,2.82
			c4.75-0.26,5.39,2.5,5.17,6.29c-0.1,1.7,0.41,3.42,0.44,5.13c0.05,2.34,0.86,3.77,3.42,3.86c2.78,0.1,3.42,1.79,3.27,4.31
			c-0.16,2.5-0.05,5.02,0.11,7.53c0.1,1.5,0.63,3.06,2.52,2.99c4.73-0.18,5.44,2.65,5.18,6.44c-0.12,1.71,0.07,3.44-0.05,5.16
			c-0.17,2.46,0.67,3.8,3.35,3.58c2.93-0.24,3.96,1.25,3.89,4.08c-0.12,5.02-0.01,10.05-0.04,15.08c-0.01,1.88,0.31,3.78,2.59,3.64
			c4.62-0.28,4.63,2.53,4.6,5.87c-0.11,14.95-0.11,29.9-0.13,44.85c0,2.5-0.46,5.2,0.33,7.44c0.99,2.85,4.7,0.85,6.64,2.58
			C568.47,416.13,568.47,424.35,568.47,432.94z M344.3,247.15c0.46-0.45,1.36-0.94,1.32-1.33c-0.63-6.07,3.42-5.72,7.41-5.54
			c1.45,0.06,2.91-0.05,4.36,0c2.41,0.08,3.84-0.81,3.63-3.45c-0.2-2.49,0.96-3.83,3.44-3.7c3.24,0.18,4.1-1.84,4.3-4.44
			c0.15-1.97,0.15-3.96,0.11-5.94c-0.06-2.64-0.89-4.63-4.05-4.73c-2.54-0.08-3.82-1.4-3.67-4.06c0.14-2.47-1.06-3.71-3.6-3.5
			c-2.39,0.2-3.53-1.14-3.46-3.3c0.1-3.19-1.56-4.17-4.39-4.2c-2.06-0.03-3.13-1.08-3.03-3.26c0.16-3.54-1.85-4.44-5.04-4.38
			c-6.74,0.13-13.48,0-20.22,0.04c-2.53,0.02-4.7-0.58-4.72-3.51c-0.03-3.46-2.14-4.29-4.87-4.36c-4.76-0.12-9.52,0.01-14.28-0.07
			c-2.52-0.04-3.69,1.04-3.53,3.57c0.21,3.24-1.41,3.94-4.44,3.75c-4.87-0.31-9.78-0.4-14.64,0.35c-1.33,0.21-3,0.34-3.06,1.95
			c-0.23,5.54-3.72,5.35-7.68,4.76c-1.29-0.19-2.64-0.04-3.96,0.05c-2.09,0.15-3.58,1.08-3.59,3.39c-0.02,3.24-1.75,4.41-4.79,4.36
			c-2.14-0.04-3.04,1.28-3.05,3.32c-0.02,5.29-0.06,10.58-0.07,15.86c0,1.81,0.61,3.24,2.75,2.96c3.38-0.45,4.54,1.14,4.49,4.3
			c-0.03,2.24,1.28,3.5,3.53,3.29c3.03-0.29,4.07,1.35,4.16,3.95c0.11,3.19,2.09,3.96,4.77,3.96c4.36,0,8.73-0.09,13.09,0.05
			c2.72,0.09,4.28-0.68,4.3-3.71c0.01-1.94,0.57-3.52,3.13-3.7c10.3-0.75,20.58,0.38,30.88,0.23c2.47-0.04,3.81,0.99,3.56,3.53
			c-0.3,3.05,1.22,3.92,4,3.84C332.79,247.33,338.21,247.36,344.3,247.15z"/>
		<path class="st0" d="M290.58,469.71c13.62,0.22,26.84,0.39,40.06,0.71c3.46,0.08,6.06-0.2,5.85-4.7c-0.12-2.42,1.9-2.92,3.91-2.86
			c1.58,0.04,3.16,0.22,4.74,0.36c3.82,0.34,6.87-0.05,6.62-5.18c-0.12-2.4,1.91-2.86,3.96-2.73c2.12,0.14,3.58-0.4,3.69-2.96
			c0.11-2.53-0.74-4.26-3.37-4.38c-3.11-0.15-4.55-1.54-4.55-4.67c0-2.58-1.97-2.78-3.92-2.83c-5.95-0.16-11.9-0.41-17.84-0.45
			c-20.9-0.12-41.8-0.11-62.7-0.29c-3.45-0.03-5.65,0.62-5.61,4.65c0.02,2.25-1.75,2.8-3.62,2.7c-2.89-0.16-3.58,1.35-3.55,3.92
			c0.03,2.5,0.91,3.76,3.51,3.52c2.55-0.24,3.71,1.07,3.66,3.49c-0.06,2.68,0.7,4.22,3.85,4.08c2.52-0.11,3.88,1.58,3.7,4.12
			c-0.17,2.48-1.79,3.3-4.13,3.17c-1.58-0.09-3.17-0.04-4.76-0.02c-3.17,0.05-6.59,0.78-5.72-4.6c0.32-1.95-1.84-2.7-3.72-2.65
			c-3.14,0.09-4.11-1.5-4.05-4.45c0.16-6.88,0.11-13.76,0.19-20.63c0.03-2.76,0.66-5.02,4.2-4.9c2.12,0.07,3.06-1.22,3.08-3.28
			c0.03-3.02,1.82-4.12,4.6-4.1c2.25,0.01,4.49-0.05,6.74,0.01c2.37,0.06,4.08,0.82,4.03,3.7c-0.05,3.15,1.95,3.87,4.75,3.85
			c10.31-0.07,20.63-0.01,30.94,0.01c8.99,0.01,17.99-0.05,26.96,0.72c2.56,0.22,4.47-0.31,4.52-3.45c0.05-2.77,1.68-4,4.34-4.02
			c4.76-0.04,9.52-0.1,14.28-0.08c2.48,0.01,4.09,1.03,3.85,3.83c-0.23,2.67,0.87,4.01,3.65,3.77c2.89-0.25,3.57,1.41,3.54,3.94
			c-0.07,7.27-0.06,14.55-0.01,21.83c0.02,2.71-0.84,4.39-3.88,4.12c-2.36-0.21-3.43,1-3.52,3.23c-0.15,3.28-2.05,4.24-5.04,3.96
			c-1.31-0.12-2.65,0.06-3.97-0.03c-3.53-0.26-6.39,0.08-6.01,4.84c0.15,1.84-1.29,2.81-3.1,2.93c-1.19,0.08-2.38,0.06-3.57,0.05
			c-21.03-0.25-42.05-0.51-63.08-0.79c-1.9-0.03-4.15,0.48-4.91-2.19c-0.87-3.04,0.67-5.17,3.92-5.21
			C278.81,469.69,284.49,469.72,290.58,469.71z"/>
		<path class="st0" d="M288.99,499.94c-2.64-0.01-4.9,0.04-7.14-0.04c-3.4-0.11-6.44-0.01-6.41,4.72c0.01,1.51-1.3,2.62-3.02,2.54
			c-1.98-0.09-3.47-1.22-3.38-3.18c0.19-4.22-2.21-4.69-5.55-4.57c-4.36,0.15-8.73-0.06-13.09,0.05c-3,0.07-4.63-1.08-4.18-4.2
			c0.43-2.93-0.87-3.86-3.57-3.61c-2.09,0.2-3.16-0.66-3.17-2.94c-0.01-2.64-0.36-5.27-0.49-7.91c-0.1-2.14,0.74-3.66,3.08-3.78
			c2.22-0.12,4.15,0.65,4.15,3.17c0,3.49,1.61,4.67,4.9,4.53c2.38-0.1,3.34,1.29,2.79,3.62c-0.66,2.78,0.9,3.63,3.24,3.63
			c12.83,0.04,25.66,0.03,38.49,0.04c2.23,0,3.53-0.89,3.39-3.31c-0.18-3.24,1.79-4.1,4.54-4.04c1.98,0.04,3.97,0.12,5.95,0.19
			c2.62,0.1,4.34,1.17,4.19,4.09c-0.17,3.15,1.68,3.66,4.3,3.66c11.91-0.01,23.81,0.06,35.72,0.14c2.26,0.01,4.55-0.16,4.65,3.31
			c0.09,3.04-0.82,4.45-4.02,4.2c-2.37-0.18-4.76,0.06-7.14-0.06c-2.67-0.13-4,0.98-3.9,3.68c0.11,3.02-1.47,3.94-4.26,3.62
			c-1.57-0.18-3.19-0.26-4.75-0.07c-3.47,0.42-5.72-0.4-5.72-4.44c0-2.95-2.25-2.75-4.26-2.76
			C312.67,500.14,301.03,500.04,288.99,499.94z"/>
		<path class="st0" d="M393.15,323.02c-2.3-0.34-2.88-1.7-2.88-3.46c0-3.47-1.89-4.61-5.11-4.29c-1.31,0.13-2.65-0.08-3.96,0.03
			c-3.6,0.29-6.32-0.21-6.02-4.89c0.15-2.43-1.98-2.42-3.72-2.46c-6.45-0.16-12.89-1.02-19.37-0.12c-3,0.41-6.06,0.15-9.08-0.33
			c-3.07-0.48-5.14,0.41-5.41,4c-0.16,2.11-1.06,3.89-3.77,3.48c-2.72-0.42-3.83-1.71-3.2-4.65c0.37-1.74,0.08-3.69-0.2-5.5
			c-0.46-3,0.43-4.58,3.71-4.41c2.37,0.12,4.75,0.02,7.13-0.01c2.42-0.03,3.99-0.84,4.01-3.7c0.02-3.22,2.13-4.32,5.06-4.11
			c1.58,0.11,3.14,0.44,4.71,0.58c3.13,0.28,5.52-0.32,5.47-4.29c-0.02-2.05,0.96-3.52,3.4-3.45c2.35,0.07,3.95,1.07,3.83,3.51
			c-0.18,3.75,1.92,4.47,4.99,4.31c1.45-0.08,2.91,0.05,4.36-0.03c3.49-0.21,6.46,0,5.87,4.85c-0.23,1.88,1.27,2.48,2.9,2.38
			c2.95-0.17,4.54,0.92,4.22,4.1c-0.22,2.18,0.96,3.15,3.03,3.22c3.57,0.12,4.77,2.24,4.69,5.49c-0.05,1.85-0.02,3.7-0.03,5.55
			C397.79,321.68,396.63,323.37,393.15,323.02z"/>
		<path class="st0" d="M215.4,306.65c2.13-0.6,2.73-1.92,2.69-3.7c-0.08-3.18,1.85-4.14,4.62-3.98c1.84,0.1,3.68,0.37,5.52,0.54
			c2.85,0.26,5.03-0.29,4.99-3.87c-0.04-3.11,1.78-3.94,4.67-3.89c9.39,0.19,18.77,0.27,28.16,0.23c2.78-0.01,4.27,0.77,4.23,3.76
			c-0.04,3.05,1.69,4.17,4.61,3.97c2.11-0.14,4.24,0.06,6.34-0.07c3.27-0.2,4.62,1.24,4.34,4.48c-0.21,2.37-0.26,4.75-0.3,7.13
			c-0.03,2.11-0.97,3.15-3.13,3.17c-2.02,0.01-4.14-0.34-4.08-2.69c0.14-5.12-2.92-5.25-6.73-5.18c-8.86,0.15-17.72,0.1-26.58,0.01
			c-3.04-0.03-4.87,0.9-4.73,4.26c0.1,2.46-1.06,3.89-3.59,3.49c-6.98-1.11-13.99-0.31-20.98-0.55c-2.23-0.08-4.69,0.39-4.8-3.09
			C210.56,307.47,212.21,306.45,215.4,306.65z"/>
		<path class="st0" d="M342.73,582.56c-0.24-4.36-0.19-7.93,5.54-7.59c2.15,0.13,2.43-2.08,2.4-3.88c-0.04-2.16,0.95-3.08,3.12-3.1
			c1.97-0.02,3.94-0.41,5.92-0.52c5.95-0.33,5.95-0.31,5.97-6.43c0-1.46,0.07-2.91,0.02-4.37c-0.1-2.45,0.93-3.8,3.48-3.65
			c2.65,0.16,3.92-0.92,3.82-3.69c-0.09-2.7,1.42-3.66,4.05-3.56c2.58,0.1,3.52,1.4,3.5,3.77c-0.01,1.85-0.11,3.71,0.04,5.55
			c0.31,3.63-1.08,5.56-4.89,5.45c-2.47-0.07-3.13,1.44-3.08,3.62c0.06,2.51-0.01,5.03,0,7.54c0,2.41-0.93,3.85-3.59,3.43
			c-2.6-0.4-3.75,0.82-3.72,3.29c0.04,2.73-0.99,4.25-3.96,4.12c-2.55-0.11-4,1.03-3.85,3.79c0.14,2.5-1.16,3.7-3.61,3.6
			c-2.5-0.1-3.63,1-3.59,3.53c0.04,2.57-1.48,3.94-3.94,4.05c-2.5,0.11-3.54,1.38-3.66,3.72c-0.15,2.76-1.57,3.93-4.38,3.86
			c-3.19-0.08-3.1-2.37-3.23-4.43c-0.15-2.37-0.07-4.76,0-7.14c0.05-1.72,0.67-3.43,2.6-3.39
			C343.15,590.22,343,586.67,342.73,582.56z"/>
		<path class="st0" d="M225.32,362.08c0.51-2.33,1.91-3.07,3.84-3.07c2.55,0.01,4.05-1.16,3.95-3.81c-0.09-2.44,1.28-3.32,3.39-3.39
			c12.66-0.38,25.33-0.7,37.98,0.31c3.07,0.25,3.1,2.72,2.75,4.74c-0.58,3.33,2.36,7.84-2.39,9.76c-2.48,1-5.14,0.08-4.92-3.61
			c0.18-3.11-1.26-4.21-4.29-4.11c-4.62,0.15-9.24,0.09-13.86,0.01c-3.04-0.05-4.92,0.9-4.48,4.35c0.2,1.56-0.35,2.77-2.02,2.73
			c-5.54-0.14-11.05,0.85-16.59,0.26C226.35,366.02,225.01,364.93,225.32,362.08z"/>
		<path class="st0" d="M367.26,401.1c0.11-3.21,2.05-3.85,4.38-3.63c9.63,0.92,19.28,0.59,28.93,0.63c2.47,0.01,3.68,1.09,3.7,3.55
			c0.03,2.63-1.48,3.34-3.82,3.39c-2.64,0.06-5.26,0.42-7.9,0.54c-2.29,0.1-3.28,1.12-3.27,3.47c0.01,2.33,0.95,3.38,3.26,3.49
			c2.11,0.1,4.08,0.81,4.35,3.23c0.36,3.12,0.98,6.44-1.08,9.2c-1.07,1.44-2.94,0.79-4.49,0.57c-1.54-0.22-1.83-1.44-1.74-2.68
			c0.23-3.1-0.81-4.75-4.24-4.45c-2.07,0.19-3.2-1.3-3.49-3.11c-0.36-2.29-1.58-3.22-3.77-3.11c-2.43,0.12-3.74-0.88-3.68-3.45
			c0.05-2.56-1.04-4.01-3.83-3.74C367.94,405.27,366.97,403.9,367.26,401.1z"/>
		<path class="st0" d="M357.68,360.35c-5.47-0.26-10.62-0.51-15.76-0.62c-2.65-0.05-4.41-0.98-4.44-3.84
			c-0.03-2.78,1.79-3.52,4.2-3.55c10.04-0.12,20.07-0.01,30.1,0.5c2.16,0.11,3.3,1.13,3.14,3.17c-0.29,3.78,1.8,4.45,4.9,4.29
			c2.11-0.11,4.23,0.01,6.34,0.03c2.71,0.03,3.67,1.62,3.69,4.1c0.03,2.67-1.52,3.29-3.85,3.27c-7.27-0.07-14.54-0.11-21.8,0
			c-2.81,0.05-4.2-0.85-4.12-3.82C360.12,362.43,359.72,360.95,357.68,360.35z"/>
		<path class="st0" d="M327.41,610.6c0.31-1.33,0.47-2.38,0.72-3.4c0.53-2.17,2.24-2.27,4.05-2.29c1.87-0.03,2.55,1.13,2.83,2.68
			c0.47,2.63,0.24,5.27-0.01,7.9c-0.24,2.54-0.68,4.75-4.26,4.03c-2.12-0.42-3.28,1.22-3.23,3.11c0.11,4.09-2.19,4.93-5.59,4.69
			c-1.45-0.1-2.91,0.02-4.36-0.11c-3.4-0.3-5.8,0.37-5.33,4.6c0.2,1.79-0.92,2.64-2.68,2.64c-2.91,0.01-5.81-0.01-8.72,0.02
			c-2.48,0.03-3.11-1.55-3.22-3.6c-0.11-2.12,0.67-3.87,2.96-3.86c3.06,0.01,4.25-1.27,4.33-4.24c0.06-2.18,1.47-3.29,3.72-3.16
			c2.61,0.15,3.85-0.99,3.97-3.69c0.14-3.09,2.24-3.67,4.99-3.67C320.86,612.25,324.45,613.98,327.41,610.6z"/>
		<path class="st0" d="M238.13,569.61c0.04-2.6-0.06-4.85,0.14-7.08c0.19-2.13,1.45-3.22,3.72-3.23c2.36-0.02,3.57,1.17,3.46,3.33
			c-0.19,3.6,1.84,3.99,4.74,4.08c9.91,0.29,9.99,0.36,10.28,9.87c0.09,3.14,0.51,5.58,4.47,5.22c0.13-0.01,0.26,0.04,0.39,0.06
			c2.28,0.3,2.76,1.95,2.44,3.77c-0.63,3.57,1.99,7.89-1.69,10.62c-2.12,1.58-5.2-0.27-5.43-3.1c-0.25-3.04-1.59-4.13-4.48-4.16
			c-2.16-0.02-3.45-1.25-3.12-3.59c0.44-3.13-1.39-4.04-3.98-3.94c-2.44,0.09-3.38-0.97-3.2-3.29c0.2-2.67-1.16-3.96-3.73-3.94
			C239.22,574.22,238.14,572.63,238.13,569.61z"/>
		<path class="st0" d="M296.51,626.04c-3.27,0.45-6.28,0.88-9.29,0.87c-2.8-0.01-4.89-1.21-4.79-4.52c0.06-1.89-0.67-3.12-2.75-2.99
			c-3.17,0.19-4.73-1.11-4.46-4.42c0.19-2.34-1.34-2.89-3.3-2.92c-3.02-0.05-4.22-1.61-3.99-4.59c0.19-2.37,0.12-4.76,0.17-7.14
			c0.04-1.94,0.68-3.46,2.91-3.47c2.08-0.01,4.26,0.37,4.29,3.01c0.05,3.46,1.32,5.12,4.98,4.84c1.88-0.15,2.42,1.5,2.38,3.02
			c-0.08,3.09,1.3,4.05,4.34,4.07C298.21,611.9,299,613.12,296.51,626.04z"/>
		<path class="st0" d="M381.62,453.27c-0.37-3.43,0.72-5.21,4.06-5.1c2.42,0.08,3.28-1.32,3.18-3.51c-0.12-2.71,1.16-3.8,3.84-3.68
			c2.7,0.12,3.73,1.58,3.74,4.06c0.01,1.85-0.02,3.69-0.01,5.54c0.01,3.16-0.82,5.51-4.68,5.26c-2.18-0.14-2.58,1.28-2.6,3.08
			c-0.02,2.48-0.53,4.27-3.81,4.14c-3.41-0.14-3.87-1.98-3.73-4.67C381.68,456.82,381.62,455.23,381.62,453.27z"/>
		<path class="st0" d="M238.61,475.32c-4.77,2.3-6.39,1.56-6.92-3.07c-0.25-2.17-1.24-3.1-3.32-2.94c-2.95,0.23-4.06-1.24-3.98-4.02
			c0.08-2.51,0.08-5.02,0.04-7.52c-0.03-2.27,0.85-3.39,3.28-3.38c2.38,0.01,3.93,0.74,3.72,3.36c-0.24,2.91,0.9,4.21,3.86,3.93
			c2.49-0.23,3.74,1.15,3.78,3.49C239.13,468.46,239.5,471.76,238.61,475.32z"/>
		<path class="st0" d="M230.25,552.47c-0.53-0.46-0.87-0.66-1.19-0.89c-1.56-1.14-4.69,0.71-5.08-1.86c-0.58-3.86-1-7.91,0.15-11.75
			c0.54-1.81,2.54-1.59,4.13-1.42c1.59,0.17,2.31,1.2,2.23,2.73c-0.18,3.45,1.22,5.2,4.86,4.99c2.25-0.13,2.97,1.45,2.92,3.37
			c-0.08,2.76-0.34,5.52-0.49,8.28c-0.1,1.88-0.94,2.92-2.91,2.99c-1.98,0.07-3.32-0.63-3.71-2.71
			C230.95,555.02,230.69,553.87,230.25,552.47z"/>
		<path class="st0" d="M426.94,380.57c-0.02-5.38-0.11-10.41,0.07-15.42c0.08-2.22,0.36-4.52,3.74-4.38
			c3.27,0.14,3.9,1.92,3.84,4.69c-0.1,4.49,0.01,8.99-0.05,13.48c-0.02,1.64,0.42,3.72-2.02,4.09
			C430.36,383.35,427.89,384.07,426.94,380.57z"/>
		<path class="st0" d="M180.19,366.53c0.17-4.34,0.39-8.3,0.47-12.26c0.04-2.21,1.06-3.05,3.2-2.97c1.93,0.07,3.58,0.58,3.62,2.76
			c0.11,5.55,0.11,11.1-0.01,16.65c-0.05,2.29-1.87,2.5-3.73,2.53c-1.99,0.04-3.4-0.51-3.5-2.77
			C180.17,369.29,180.2,368.1,180.19,366.53z"/>
		<path class="st0" d="M379.95,463.69c2.43,4.07,1.29,8.16,0.96,12.15c-0.17,2-2.02,2.2-3.7,2.07c-1.88-0.15-3.39-0.81-3.44-3.02
			c-0.05-2.11-0.04-4.23-0.03-6.34C373.78,463.5,374.39,462.98,379.95,463.69z"/>
		<path class="st0" d="M396.74,430.26c-0.31-3.27,0.95-4.44,3.88-4.36c2.88,0.08,3.65,1.75,3.58,4.13c-0.08,2.5-0.47,4.99-0.53,7.49
			c-0.05,2.36-1.07,3.32-3.42,3.19c-2.44-0.14-3.61-1.27-3.55-3.73C396.76,434.86,396.74,432.75,396.74,430.26z"/>
		<path class="st0" d="M329.58,449.42c4.17-2.38,8.42-1.12,12.55-1.08c1.88,0.02,1.96,1.87,1.76,3.38
			c-0.21,1.57-0.37,3.36-2.55,3.39c-3.17,0.03-6.36,0.09-9.51-0.18C328.33,454.62,329.35,451.89,329.58,449.42z"/>
		<path class="st0" d="M223.51,453.5c-5.66,1.2-6.29,0.69-6.28-4.69c0-1.85,0.1-3.69,0.01-5.53c-0.13-2.55,0.68-3.92,3.55-3.93
			c3.01,0,3.52,1.63,3.37,4.05C223.96,446.68,224.57,449.98,223.51,453.5z"/>
		<path class="st0" d="M361.46,485.58c2.48-0.22,4.51,0.06,4.54,2.75c0.02,1.6,0.1,3.69-1.94,4.31c-1.8,0.55-4.16,0.43-4.89-1.36
			C358.37,489.31,358.52,486.83,361.46,485.58z"/>
		<path class="st0" d="M331.31,366.58c-1.86-4.21-1.24-6.18,1.69-6.51c2.57-0.29,4.06,0.87,4.31,3.44c0.27,2.72-1.38,3.42-3.7,3.31
			C332.95,366.79,332.3,366.74,331.31,366.58z"/>
		<path class="st0" d="M367.85,478.63c2.53-0.17,5.33-1.36,5.82,2.31c0.23,1.68-0.4,3.19-2.02,3.91c-1.35,0.59-3.05,0.82-4.05-0.36
			C366.14,482.77,365.94,480.7,367.85,478.63z"/>
		<path class="st0" d="M346.15,236.95c-0.52,2.42-1.8,3.56-3.96,3.52c-2.76-0.06-5.49-0.37-8.28-0.14
			c-1.99,0.16-3.09-1.55-2.97-3.48c0.21-3.52-1.69-4.16-4.68-4.15c-14.15,0.05-28.31-0.03-42.46-0.06c-2.36,0-4.61-0.18-5.12-3.16
			c-0.52-3.05,1.03-5.02,4.48-5.03c9.39-0.02,18.78,0.14,28.16,0.3c7.64,0.13,15.29,0.42,22.93,0.49c2.48,0.02,4.26,0.58,4.19,3.42
			c-0.07,3.01,1.28,4.44,4.29,4.3C345.3,232.85,346.36,234.16,346.15,236.95z"/>
		<path class="st0" d="M277.22,239.07c-3.76,1.23-7.32,0.57-10.84,0.7c-1.8,0.07-2.87-1.04-2.51-2.7c0.37-1.69-0.77-4.53,2.2-4.73
			c4.01-0.28,8.06-0.07,12.33-0.07C278.07,234.8,278.6,236.91,277.22,239.07z"/>
	</g>
</g>
</svg>
